<svg id="visual" viewBox="0 0 1920 1080" width="1920" height="1080" xmlns="http://www.w3.org/2000/svg" xmlns:xlink="http://www.w3.org/1999/xlink" version="1.1"><path d="M0 855L64 866.2C128 877.3 256 899.7 384 911.3C512 923 640 924 768 921.3C896 918.7 1024 912.3 1152 897.2C1280 882 1408 858 1536 853.7C1664 849.3 1792 864.7 1856 872.3L1920 880L1920 1081L1856 1081C1792 1081 1664 1081 1536 1081C1408 1081 1280 1081 1152 1081C1024 1081 896 1081 768 1081C640 1081 512 1081 384 1081C256 1081 128 1081 64 1081L0 1081Z" fill="#52aee0"></path><path d="M0 918L64 920.8C128 923.7 256 929.3 384 940C512 950.7 640 966.3 768 970.2C896 974 1024 966 1152 959.5C1280 953 1408 948 1536 938.2C1664 928.3 1792 913.7 1856 906.3L1920 899L1920 1081L1856 1081C1792 1081 1664 1081 1536 1081C1408 1081 1280 1081 1152 1081C1024 1081 896 1081 768 1081C640 1081 512 1081 384 1081C256 1081 128 1081 64 1081L0 1081Z" fill="#286d90"></path><path d="M0 978L64 980.7C128 983.3 256 988.7 384 990.3C512 992 640 990 768 987.3C896 984.7 1024 981.3 1152 983.7C1280 986 1408 994 1536 995.3C1664 996.7 1792 991.3 1856 988.7L1920 986L1920 1081L1856 1081C1792 1081 1664 1081 1536 1081C1408 1081 1280 1081 1152 1081C1024 1081 896 1081 768 1081C640 1081 512 1081 384 1081C256 1081 128 1081 64 1081L0 1081Z" fill="#003247"></path></svg>