<svg preserveAspectRatio="xMinYMin" id="visual" viewBox="0 0 1920 1080" width="1920" height="1080" xmlns="http://www.w3.org/2000/svg" xmlns:xlink="http://www.w3.org/1999/xlink" version="1.1"><path d="M0 766L53.3 778.5C106.7 791 213.3 816 320 815.3C426.7 814.7 533.3 788.3 640 783C746.7 777.7 853.3 793.3 960 790C1066.7 786.7 1173.3 764.3 1280 765.2C1386.7 766 1493.3 790 1600 806.2C1706.7 822.3 1813.3 830.7 1866.7 834.8L1920 839L1920 1081L1866.7 1081C1813.3 1081 1706.7 1081 1600 1081C1493.3 1081 1386.7 1081 1280 1081C1173.3 1081 1066.7 1081 960 1081C853.3 1081 746.7 1081 640 1081C533.3 1081 426.7 1081 320 1081C213.3 1081 106.7 1081 53.3 1081L0 1081Z" fill="#52aee0"></path><path d="M0 908L53.3 894.3C106.7 880.7 213.3 853.3 320 841.3C426.7 829.3 533.3 832.7 640 846.2C746.7 859.7 853.3 883.3 960 896.3C1066.7 909.3 1173.3 911.7 1280 894.3C1386.7 877 1493.3 840 1600 839.3C1706.7 838.7 1813.3 874.3 1866.7 892.2L1920 910L1920 1081L1866.7 1081C1813.3 1081 1706.7 1081 1600 1081C1493.3 1081 1386.7 1081 1280 1081C1173.3 1081 1066.7 1081 960 1081C853.3 1081 746.7 1081 640 1081C533.3 1081 426.7 1081 320 1081C213.3 1081 106.7 1081 53.3 1081L0 1081Z" fill="#286d90"></path><path d="M0 923L53.3 931.2C106.7 939.3 213.3 955.7 320 961.3C426.7 967 533.3 962 640 958C746.7 954 853.3 951 960 946C1066.7 941 1173.3 934 1280 933.3C1386.7 932.7 1493.3 938.3 1600 949.7C1706.7 961 1813.3 978 1866.7 986.5L1920 995L1920 1081L1866.7 1081C1813.3 1081 1706.7 1081 1600 1081C1493.3 1081 1386.7 1081 1280 1081C1173.3 1081 1066.7 1081 960 1081C853.3 1081 746.7 1081 640 1081C533.3 1081 426.7 1081 320 1081C213.3 1081 106.7 1081 53.3 1081L0 1081Z" fill="#003247"></path></svg>