<?xml version="1.0" standalone="no"?>
<!DOCTYPE svg PUBLIC "-//W3C//DTD SVG 20010904//EN"
 "http://www.w3.org/TR/2001/REC-SVG-20010904/DTD/svg10.dtd">
<svg version="1.0" xmlns="http://www.w3.org/2000/svg"
 width="2048.000000pt" height="2048.000000pt" viewBox="0 0 2048.000000 2048.000000"
 preserveAspectRatio="xMidYMid meet">
<metadata>
Created by potrace 1.14, written by Peter Selinger 2001-2017
</metadata>
<g transform="translate(0.000000,2048.000000) scale(0.100000,-0.100000)"
fill="#000000" stroke="none">
<path d="M7897 17594 c-1 -1 -87 -5 -191 -9 -103 -4 -198 -8 -210 -10 -11 -2
-64 -6 -116 -10 -52 -3 -108 -8 -125 -10 -16 -2 -59 -7 -95 -10 -36 -3 -76 -7
-90 -9 -14 -3 -50 -7 -80 -10 -30 -4 -66 -8 -80 -10 -14 -2 -47 -7 -75 -11
-27 -3 -66 -9 -85 -11 -19 -3 -98 -16 -175 -30 -77 -14 -154 -28 -171 -30 -79
-10 -508 -113 -689 -166 -38 -11 -83 -23 -100 -27 -113 -30 -630 -216 -750
-270 -11 -5 -78 -35 -150 -67 -449 -197 -989 -508 -1352 -778 -44 -34 -94 -70
-109 -81 -63 -46 -333 -266 -403 -330 -201 -182 -350 -329 -497 -490 -94 -102
-277 -318 -334 -394 -14 -18 -57 -77 -97 -130 -40 -53 -76 -100 -80 -106 -25
-30 -123 -178 -123 -185 0 -5 -3 -10 -7 -12 -33 -14 -300 -472 -447 -764 -80
-162 -216 -455 -216 -469 0 -2 -11 -28 -23 -57 -13 -29 -34 -80 -47 -113 -12
-33 -28 -74 -36 -90 -50 -115 -217 -655 -249 -808 -2 -10 -6 -26 -9 -35 -3 -9
-7 -28 -10 -42 -3 -14 -7 -34 -10 -45 -31 -128 -92 -464 -112 -620 -3 -22 -7
-53 -9 -70 -4 -28 -8 -65 -19 -155 -3 -19 -7 -69 -11 -110 -3 -41 -8 -92 -10
-113 -14 -118 -20 -336 -20 -677 1 -402 6 -540 30 -765 2 -22 7 -69 10 -105 5
-57 18 -154 31 -245 2 -16 6 -43 8 -60 2 -16 9 -57 15 -90 5 -33 13 -78 16
-100 3 -22 17 -95 30 -163 14 -67 27 -130 28 -140 6 -33 59 -257 64 -272 3 -8
7 -22 9 -30 17 -80 117 -402 169 -545 20 -55 37 -104 39 -110 4 -12 5 -15 73
-185 30 -74 60 -148 68 -165 115 -255 284 -598 315 -640 4 -5 20 -32 35 -60
22 -41 107 -186 158 -270 24 -39 227 -342 278 -415 231 -329 670 -825 924
-1045 38 -33 81 -71 95 -85 14 -14 47 -42 72 -63 26 -21 53 -44 60 -50 7 -7
67 -55 133 -106 66 -51 130 -101 142 -111 12 -10 34 -27 50 -37 15 -10 34 -23
41 -30 14 -14 365 -251 397 -269 11 -6 61 -36 110 -66 357 -219 806 -436 1265
-612 166 -63 629 -208 770 -241 8 -2 73 -17 144 -34 70 -17 138 -33 150 -35
11 -2 68 -14 126 -26 58 -12 115 -24 128 -26 12 -2 34 -6 50 -9 59 -11 340
-54 387 -60 28 -3 61 -7 75 -10 32 -5 96 -12 185 -20 39 -4 81 -8 95 -11 14
-2 65 -6 115 -9 49 -3 104 -8 120 -10 198 -24 1100 -24 1320 0 22 2 74 7 115
9 41 3 107 9 145 13 86 9 159 9 250 -1 39 -4 106 -9 150 -12 44 -2 97 -6 117
-9 200 -24 1072 -24 1298 0 19 2 76 6 125 9 50 4 106 9 125 12 42 6 233 7 275
0 17 -2 68 -7 115 -11 47 -3 105 -8 130 -10 289 -24 997 -24 1310 0 19 1 79 5
132 9 54 4 106 9 116 11 10 2 54 6 98 9 43 4 90 8 104 11 23 4 95 13 160 20
50 6 125 17 130 20 3 2 30 6 60 9 30 4 66 9 80 12 63 12 76 14 110 19 31 5
334 68 385 80 11 3 29 7 40 9 258 60 564 151 842 252 145 52 493 192 508 204
6 4 21 11 35 15 42 12 437 208 580 287 139 77 339 198 470 283 80 53 312 215
320 224 3 4 41 33 85 65 44 33 82 62 85 65 3 3 28 24 55 46 251 198 591 526
841 810 250 284 504 625 693 930 34 55 66 107 71 115 9 16 118 205 157 275
105 186 306 624 396 860 88 232 212 618 233 723 2 12 18 75 34 140 16 64 31
129 34 145 3 15 7 35 10 45 3 9 7 28 10 42 3 21 30 163 41 220 2 8 8 51 15 95
11 75 13 92 24 155 9 50 34 273 42 364 2 34 6 77 9 97 27 229 27 1062 0 1334
-2 22 -7 69 -10 105 -11 129 -35 326 -50 415 -10 60 -13 85 -20 137 -4 26 -26
143 -51 260 -24 117 -47 224 -49 238 -3 14 -21 84 -41 155 -19 72 -36 137 -39
145 -70 264 -240 720 -390 1045 -65 140 -213 432 -247 485 -8 14 -29 50 -45
80 -95 176 -370 593 -496 750 -234 293 -207 261 -357 430 -134 150 -460 473
-601 595 -186 161 -288 244 -439 354 -30 23 -68 51 -84 63 -87 68 -364 248
-556 361 -456 268 -1035 523 -1570 693 -133 42 -552 156 -617 168 -15 3 -39 7
-53 10 -93 21 -263 54 -330 66 -141 24 -168 29 -215 35 -22 3 -71 10 -110 16
-38 6 -86 12 -105 14 -19 3 -53 7 -75 9 -22 3 -67 8 -100 11 -33 3 -80 8 -105
10 -25 3 -76 7 -115 10 -38 3 -97 7 -130 10 -402 29 -1038 25 -1445 -10 -36
-3 -94 -8 -130 -11 -36 -3 -76 -7 -90 -9 -13 -3 -67 0 -120 5 -52 6 -129 13
-170 16 -41 3 -100 7 -130 9 -248 19 -797 25 -1085 12 -231 -11 -293 -15 -485
-34 -93 -9 -166 -9 -250 0 -109 12 -258 23 -447 33 -110 6 -721 13 -726 8z
m2425 -4387 c456 -455 770 -1034 953 -1754 24 -94 47 -191 50 -215 4 -23 8
-45 11 -49 2 -3 6 -24 9 -45 2 -21 7 -49 9 -60 21 -105 49 -352 61 -549 12
-187 5 -656 -11 -738 -2 -10 -6 -54 -9 -98 -3 -43 -8 -88 -10 -100 -2 -12 -7
-47 -11 -78 -3 -31 -8 -58 -9 -61 -2 -3 -6 -30 -10 -60 -8 -65 -40 -230 -62
-315 -8 -33 -17 -68 -18 -77 -15 -72 -112 -392 -135 -443 -5 -11 -30 -72 -56
-135 -139 -342 -333 -666 -575 -955 -95 -114 -253 -275 -269 -275 -19 0 -201
189 -299 310 -174 215 -308 424 -435 677 -42 84 -76 154 -76 157 0 3 -12 31
-26 62 -39 86 -146 387 -159 448 -2 12 -15 62 -28 111 -47 172 -88 377 -112
560 -3 28 -8 61 -10 75 -2 14 -6 54 -9 90 -3 36 -8 85 -11 110 -15 139 -21
556 -11 725 7 106 17 232 20 256 3 13 7 53 11 89 4 36 9 74 11 85 2 11 6 40 9
65 8 67 32 189 66 335 17 72 32 137 34 145 9 38 57 196 94 305 126 378 313
741 536 1040 48 66 98 131 110 145 141 159 270 290 287 290 4 0 40 -33 80 -73z"/>
</g>
</svg>
