<?xml version="1.0" standalone="no"?>
<!DOCTYPE svg PUBLIC "-//W3C//DTD SVG 20010904//EN"
 "http://www.w3.org/TR/2001/REC-SVG-20010904/DTD/svg10.dtd">
<svg version="1.0" xmlns="http://www.w3.org/2000/svg"
 width="2048.000000pt" height="2048.000000pt" viewBox="0 0 2048.000000 2048.000000"
 preserveAspectRatio="xMidYMid meet">
<metadata>
Created by potrace 1.14, written by Peter Selinger 2001-2017
</metadata>
<g transform="translate(0.000000,2048.000000) scale(0.100000,-0.100000)"
fill="#000000" stroke="none">
<path d="M7178 20475 c-1 -1 -66 -5 -143 -9 -77 -3 -167 -8 -200 -11 -104 -7
-206 -16 -228 -20 -12 -2 -53 -6 -92 -10 -38 -3 -101 -11 -140 -16 -66 -9 -86
-12 -186 -24 -22 -3 -50 -7 -62 -10 -12 -2 -40 -7 -61 -10 -21 -3 -48 -7 -60
-10 -12 -2 -37 -7 -56 -9 -47 -7 -230 -43 -305 -61 -274 -63 -347 -82 -470
-117 -396 -112 -915 -310 -1210 -461 -22 -11 -42 -20 -45 -21 -25 -3 -515
-283 -672 -384 -305 -195 -654 -463 -898 -687 -84 -77 -360 -353 -430 -430
-422 -462 -777 -979 -1065 -1550 -113 -224 -162 -329 -210 -445 -14 -36 -33
-81 -41 -100 -28 -65 -32 -75 -67 -170 -63 -169 -163 -466 -171 -506 -3 -10
-19 -68 -36 -128 -18 -60 -34 -118 -36 -129 -2 -11 -8 -34 -13 -51 -6 -17 -13
-42 -15 -56 -3 -14 -10 -43 -16 -65 -11 -44 -38 -166 -46 -205 -3 -14 -13 -68
-24 -120 -44 -216 -93 -533 -115 -745 -3 -27 -8 -66 -10 -85 -2 -19 -7 -71
-11 -115 -4 -44 -8 -93 -9 -110 -2 -16 -6 -79 -10 -140 -4 -60 -10 -128 -13
-150 -3 -22 -7 -3027 -9 -6677 l-3 -6638 5220 0 5220 0 0 2791 0 2791 28 -6
c29 -5 99 -14 172 -22 25 -2 63 -7 85 -10 244 -33 908 -38 1160 -9 17 2 59 6
95 10 59 6 159 17 265 30 22 3 51 7 65 10 14 3 44 7 67 10 23 2 113 19 200 36
86 17 166 29 178 26 212 -46 350 -72 430 -83 28 -3 59 -8 70 -10 20 -4 154
-19 250 -29 251 -24 931 -24 1075 0 14 2 57 7 95 10 125 11 245 25 325 40 14
2 45 7 70 10 42 5 57 8 120 20 14 3 61 12 105 20 217 40 627 149 770 205 11 4
67 24 125 45 308 107 716 302 1034 492 93 55 346 219 381 245 6 5 69 51 140
105 114 84 259 198 291 228 6 5 42 37 80 70 199 173 422 397 600 601 513 589
964 1358 1254 2134 177 475 336 1087 396 1525 2 17 6 39 8 50 8 41 21 139 32
230 3 33 8 69 10 80 2 10 6 49 9 85 3 36 8 81 10 100 3 19 7 71 10 115 4 44 8
100 10 125 26 328 26 1221 0 1431 -1 14 -6 68 -10 120 -3 52 -8 103 -10 114
-3 11 -7 52 -10 90 -3 39 -7 81 -9 95 -3 14 -7 50 -11 80 -3 30 -7 66 -10 80
-2 14 -11 77 -20 140 -9 63 -18 117 -20 120 -2 3 -6 28 -10 55 -3 28 -15 97
-27 155 -27 144 -27 140 -32 158 -3 9 -8 33 -11 52 -12 73 -115 462 -163 615
-77 248 -158 474 -216 607 -9 20 -16 40 -16 45 0 9 -113 275 -169 398 -192
419 -450 854 -732 1233 -99 133 -320 400 -414 501 -288 310 -625 627 -835 786
-343 259 -592 426 -845 568 -11 6 -51 28 -90 50 -128 71 -468 234 -630 301
-88 37 -169 71 -180 76 -17 7 -75 29 -200 76 -11 4 -24 8 -30 10 -5 2 -30 10
-55 19 -82 30 -353 115 -450 141 -169 46 -524 128 -605 140 -11 1 -45 7 -75
13 -30 6 -68 13 -85 16 -16 2 -39 7 -50 9 -11 2 -42 7 -70 10 -27 4 -77 11
-110 16 -67 10 -105 15 -220 29 -94 11 -143 16 -380 36 -320 26 -1164 27
-1430 0 -27 -2 -81 -7 -120 -10 -38 -4 -86 -8 -105 -10 -19 -2 -62 -6 -95 -10
-33 -3 -71 -7 -85 -10 -72 -12 -153 -19 -220 -19 -71 -1 -218 11 -229 19 -4 1
-44 6 -90 10 -47 4 -92 8 -102 10 -10 2 -58 7 -106 10 -48 4 -104 8 -123 10
-266 26 -1118 26 -1410 0 -25 -2 -81 -6 -125 -10 -76 -5 -110 -9 -207 -20 -24
-3 -63 -7 -88 -10 -25 -3 -65 -8 -90 -12 -65 -9 -195 -9 -265 0 -93 13 -186
23 -285 32 -36 3 -81 8 -100 10 -19 2 -84 7 -145 11 -60 3 -126 8 -145 10 -41
5 -907 14 -912 9z"/>
</g>
</svg>
